<svg width="26" height="19" viewBox="0 0 26 19" fill="none" xmlns="http://www.w3.org/2000/svg">
<path d="M22.0101 1.575C20.3529 0.845999 18.5759 0.308906 16.7179 0.00129041C16.6841 -0.00464648 16.6503 0.0101901 16.6328 0.039864C16.4043 0.429575 16.1511 0.937984 15.9739 1.33759C13.9754 1.05075 11.9873 1.05075 10.0298 1.33759C9.85254 0.929101 9.59019 0.429575 9.36062 0.039864C9.34319 0.0111802 9.30939 -0.00365641 9.27555 0.00129041C7.41857 0.307923 5.64152 0.845016 3.98335 1.575C3.96899 1.58093 3.95669 1.59083 3.94852 1.60368C0.577841 6.43162 -0.345529 11.1409 0.107445 15.7918C0.109495 15.8145 0.122817 15.8363 0.141265 15.8501C2.36514 17.4159 4.51935 18.3665 6.63355 18.9965C6.66739 19.0064 6.70324 18.9946 6.72477 18.9679C7.22489 18.3131 7.6707 17.6227 8.05293 16.8966C8.07549 16.8541 8.05396 16.8036 8.00785 16.7868C7.30073 16.5297 6.6274 16.2161 5.97971 15.86C5.92848 15.8313 5.92437 15.7611 5.9715 15.7275C6.1078 15.6295 6.24414 15.5277 6.37428 15.4248C6.39783 15.406 6.43064 15.402 6.45833 15.4139C10.7134 17.2765 15.32 17.2765 19.5249 15.4139C19.5525 15.4011 19.5854 15.405 19.6099 15.4238C19.7401 15.5267 19.8764 15.6295 20.0137 15.7275C20.0609 15.7611 20.0578 15.8313 20.0066 15.86C19.3589 16.223 18.6855 16.5297 17.9774 16.7858C17.9313 16.8027 17.9108 16.8541 17.9333 16.8966C18.3238 17.6216 18.7696 18.3121 19.2605 18.9669C19.281 18.9946 19.3179 19.0064 19.3517 18.9965C21.4761 18.3665 23.6303 17.4159 25.8542 15.8501C25.8737 15.8363 25.886 15.8155 25.8881 15.7928C26.4302 10.4158 24.98 5.74517 22.0439 1.60466C22.0367 1.59083 22.0245 1.58093 22.0101 1.575ZM8.68836 12.9599C7.40729 12.9599 6.35173 11.8323 6.35173 10.4475C6.35173 9.0627 7.38682 7.93511 8.68836 7.93511C10.0001 7.93511 11.0455 9.0726 11.025 10.4475C11.025 11.8323 9.98986 12.9599 8.68836 12.9599ZM17.3276 12.9599C16.0466 12.9599 14.991 11.8323 14.991 10.4475C14.991 9.0627 16.0261 7.93511 17.3276 7.93511C18.6394 7.93511 19.6847 9.0726 19.6643 10.4475C19.6643 11.8323 18.6394 12.9599 17.3276 12.9599Z" fill="#C0D9F8"/>
</svg>
