<svg width="27" height="28" viewBox="0 0 27 28" fill="none" xmlns="http://www.w3.org/2000/svg">
<path d="M8.49126 27.4883C18.6804 27.4883 24.2525 17.1016 24.2525 8.09515C24.2525 7.80005 24.2476 7.50646 24.2365 7.214C25.3181 6.252 26.2584 5.05119 27 3.68489C26.0075 4.22748 24.9394 4.59286 23.8189 4.7576C24.9625 3.91387 25.8407 2.57855 26.255 0.987043C25.1845 1.76806 23.9991 2.33559 22.7376 2.64165C21.7264 1.31691 20.2868 0.488281 18.6939 0.488281C15.6344 0.488281 13.1535 3.54093 13.1535 7.30356C13.1535 7.83859 13.2023 8.35851 13.2969 8.85765C8.69332 8.57313 4.61091 5.86055 1.87906 1.7367C1.40277 2.74367 1.12854 3.91424 1.12854 5.16228C1.12854 7.52686 2.10662 9.61448 3.59384 10.8361C2.68517 10.8017 1.83147 10.4941 1.08494 9.98326C1.08371 10.0116 1.08371 10.0403 1.08371 10.0702C1.08371 13.3714 2.99348 16.1275 5.52787 16.7521C5.06263 16.9081 4.57314 16.992 4.06767 16.992C3.71084 16.992 3.36383 16.9482 3.02634 16.8692C3.73141 19.5769 5.77661 21.5477 8.20137 21.6033C6.30511 23.4317 3.91659 24.521 1.32139 24.521C0.874583 24.521 0.433607 24.4897 0 24.4266C2.45147 26.3596 5.36235 27.4883 8.49126 27.4883Z" fill="#C0D9F8"/>
</svg>
