<svg width="27" height="27" viewBox="0 0 27 27" fill="none" xmlns="http://www.w3.org/2000/svg">
<path d="M26 13.5C26 20.4036 20.4036 26 13.5 26C6.59644 26 1 20.4036 1 13.5C1 6.59644 6.59644 1 13.5 1C20.4036 1 26 6.59644 26 13.5Z" stroke="#C0D9F8" stroke-width="2"/>
<path fill-rule="evenodd" clip-rule="evenodd" d="M6.11086 13.3574C10.0464 11.6428 12.6707 10.5124 13.9838 9.96625C17.7329 8.40687 18.5119 8.13599 19.0196 8.12705C19.1313 8.12508 19.381 8.15276 19.5428 8.284C19.6794 8.39483 19.7169 8.54453 19.7349 8.6496C19.7529 8.75467 19.7753 8.99403 19.7575 9.18105C19.5543 11.3157 18.6752 16.496 18.228 18.8869C18.0388 19.8985 17.6661 20.2377 17.3054 20.2709C16.5214 20.3431 15.9261 19.7528 15.1668 19.2551C13.9786 18.4762 13.3074 17.9914 12.1541 17.2313C10.8212 16.353 11.6852 15.8702 12.4448 15.0813C12.6436 14.8748 16.0978 11.733 16.1647 11.448C16.173 11.4123 16.1808 11.2794 16.1018 11.2093C16.0229 11.1391 15.9064 11.1631 15.8223 11.1822C15.7032 11.2092 13.805 12.4638 10.128 14.946C9.58918 15.3159 9.10117 15.4962 8.66393 15.4867C8.18191 15.4763 7.2547 15.2142 6.56541 14.9901C5.71998 14.7153 5.04804 14.57 5.10655 14.1033C5.13702 13.8602 5.4718 13.6116 6.11086 13.3574Z" fill="#C0D9F8"/>
</svg>
