<svg width="27" height="28" viewBox="0 0 27 28" fill="none" xmlns="http://www.w3.org/2000/svg">
<path d="M13.5079 3.36903C17.1171 3.36903 17.5445 3.38485 18.9638 3.44815C20.283 3.50617 20.9953 3.72769 21.4702 3.9123C22.0981 4.15493 22.5519 4.4503 23.0215 4.91972C23.4964 5.39443 23.7866 5.84276 24.0293 6.47042C24.214 6.94512 24.4356 7.66245 24.4936 8.97579C24.557 10.3999 24.5728 10.8271 24.5728 14.4296C24.5728 18.0373 24.557 18.4646 24.4936 19.8834C24.4356 21.202 24.214 21.9141 24.0293 22.3888C23.7866 23.0164 23.4911 23.47 23.0215 23.9395C22.5466 24.4142 22.0981 24.7043 21.4702 24.9469C20.9953 25.1315 20.2777 25.353 18.9638 25.411C17.5392 25.4743 17.1118 25.4901 13.5079 25.4901C9.89877 25.4901 9.47137 25.4743 8.05198 25.411C6.73285 25.353 6.02052 25.1315 5.54563 24.9469C4.91773 24.7043 4.46394 24.4089 3.99433 23.9395C3.51944 23.4648 3.22924 23.0164 2.98652 22.3888C2.80184 21.9141 2.58022 21.1967 2.52218 19.8834C2.45886 18.4593 2.44303 18.0321 2.44303 14.4296C2.44303 10.8219 2.45886 10.3946 2.52218 8.97579C2.58022 7.65717 2.80184 6.94512 2.98652 6.47042C3.22924 5.84276 3.52472 5.38915 3.99433 4.91972C4.46922 4.44502 4.91773 4.15493 5.54563 3.9123C6.02052 3.72769 6.73813 3.50617 8.05198 3.44815C9.47137 3.38485 9.89877 3.36903 13.5079 3.36903ZM13.5079 0.9375C9.84073 0.9375 9.38167 0.953323 7.94118 1.01662C6.50596 1.07991 5.51925 1.31199 4.66445 1.64428C3.77272 1.99239 3.01817 2.45127 2.26891 3.20552C1.51436 3.9545 1.05531 4.70875 0.707055 5.59486C0.374634 6.45459 0.142466 7.43564 0.0791479 8.8703C0.0158296 10.3155 0 10.7744 0 14.4401C0 18.1059 0.0158296 18.5648 0.0791479 20.0047C0.142466 21.4394 0.374634 22.4257 0.707055 23.2801C1.05531 24.1715 1.51436 24.9258 2.26891 25.6748C3.01817 26.4237 3.77272 26.8879 4.65918 27.2307C5.51925 27.563 6.50068 27.7951 7.9359 27.8584C9.37639 27.9217 9.83545 27.9375 13.5026 27.9375C17.1698 27.9375 17.6289 27.9217 19.0694 27.8584C20.5046 27.7951 21.4913 27.563 22.3461 27.2307C23.2326 26.8879 23.9871 26.4237 24.7364 25.6748C25.4856 24.9258 25.95 24.1715 26.2929 23.2854C26.6254 22.4257 26.8575 21.4446 26.9209 20.01C26.9842 18.57 27 18.1112 27 14.4454C27 10.7797 26.9842 10.3208 26.9209 8.88085C26.8575 7.44619 26.6254 6.45987 26.2929 5.6054C25.9605 4.70874 25.5015 3.9545 24.7469 3.20552C23.9977 2.45655 23.2431 1.99239 22.3567 1.64955C21.4966 1.31726 20.5151 1.08519 19.0799 1.02189C17.6342 0.953323 17.1751 0.9375 13.5079 0.9375Z" fill="#C0D9F8"/>
<path d="M13.5079 7.50391C9.67715 7.50391 6.56927 10.6105 6.56927 14.4397C6.56927 18.2688 9.67715 21.3754 13.5079 21.3754C17.3387 21.3754 20.4466 18.2688 20.4466 14.4397C20.4466 10.6105 17.3387 7.50391 13.5079 7.50391ZM13.5079 18.9387C11.0227 18.9387 9.00703 16.9239 9.00703 14.4397C9.00703 11.9554 11.0227 9.94065 13.5079 9.94065C15.9932 9.94065 18.0088 11.9554 18.0088 14.4397C18.0088 16.9239 15.9932 18.9387 13.5079 18.9387Z" fill="#C0D9F8"/>
<path d="M22.3408 7.23077C22.3408 8.12807 21.6126 8.85119 20.7209 8.85119C19.8239 8.85119 19.101 8.12279 19.101 7.23077C19.101 6.33347 19.8292 5.61035 20.7209 5.61035C21.6126 5.61035 22.3408 6.33875 22.3408 7.23077Z" fill="#C0D9F8"/>
</svg>
