<svg width="27" height="28" viewBox="0 0 27 28" fill="none" xmlns="http://www.w3.org/2000/svg">
<path d="M22.8566 2.72643C21.1358 1.69049 19.2904 0.927253 17.3609 0.490115C17.3257 0.481678 17.2906 0.502762 17.2725 0.54493C17.0352 1.09873 16.7723 1.82121 16.5882 2.38907C14.513 1.98146 12.4483 1.98146 10.4156 2.38907C10.2315 1.80858 9.95905 1.09873 9.72065 0.54493C9.70255 0.504169 9.66744 0.483085 9.63231 0.490115C7.7039 0.925856 5.85851 1.68909 4.13655 2.72643C4.12164 2.73487 4.10887 2.74893 4.10039 2.76719C0.600066 9.62795 -0.358819 16.3201 0.111578 22.9292C0.113706 22.9616 0.127541 22.9925 0.146698 23.0121C2.45611 25.2372 4.69317 26.588 6.88869 27.4834C6.92383 27.4974 6.96106 27.4806 6.98342 27.4426C7.50277 26.5121 7.96572 25.531 8.36266 24.4993C8.38609 24.4388 8.36372 24.3671 8.31585 24.3432C7.58152 23.9778 6.8823 23.5322 6.2097 23.0262C6.15649 22.9855 6.15224 22.8856 6.20118 22.8378C6.34272 22.6987 6.4843 22.5539 6.61945 22.4077C6.6439 22.381 6.67797 22.3754 6.70672 22.3922C11.1254 25.039 15.9092 25.039 20.2758 22.3922C20.3046 22.374 20.3386 22.3796 20.3642 22.4063C20.4994 22.5525 20.6409 22.6987 20.7835 22.8378C20.8324 22.8856 20.8292 22.9855 20.776 23.0262C20.1034 23.542 19.4042 23.9778 18.6688 24.3419C18.6209 24.3657 18.5997 24.4388 18.6231 24.4993C19.0285 25.5296 19.4915 26.5107 20.0013 27.4412C20.0226 27.4806 20.0608 27.4974 20.096 27.4834C22.3022 26.588 24.5392 25.2372 26.8486 23.0121C26.8688 22.9925 26.8816 22.963 26.8837 22.9306C27.4467 15.2897 25.9408 8.65248 22.8917 2.76859C22.8843 2.74893 22.8715 2.73487 22.8566 2.72643ZM9.02253 18.9049C7.69219 18.9049 6.59602 17.3026 6.59602 15.3347C6.59602 13.3669 7.67093 11.7645 9.02253 11.7645C10.3847 11.7645 11.4703 13.3809 11.449 15.3347C11.449 17.3026 10.3741 18.9049 9.02253 18.9049ZM17.9941 18.9049C16.6638 18.9049 15.5676 17.3026 15.5676 15.3347C15.5676 13.3669 16.6425 11.7645 17.9941 11.7645C19.3563 11.7645 20.4419 13.3809 20.4206 15.3347C20.4206 17.3026 19.3563 18.9049 17.9941 18.9049Z" fill="#C0D9F8"/>
</svg>
