<svg width="53" height="65" viewBox="0 0 53 65" fill="none" xmlns="http://www.w3.org/2000/svg">
<path fill-rule="evenodd" clip-rule="evenodd" d="M2.60864 0C1.16793 0 0 1.16793 0 2.60864V43.0532C0 44.4939 1.16793 45.6618 2.60864 45.6618H33.3673C34.808 45.6618 35.976 44.4939 35.976 43.0532V2.60864C35.976 1.16793 34.808 0 33.3673 0H2.60864ZM9.3668 4.15125C6.48537 4.15125 4.14951 6.48711 4.14951 9.36854V36.2936C4.14951 39.1751 6.48537 41.5109 9.3668 41.5109H26.6061C29.4875 41.5109 31.8233 39.175 31.8233 36.2936V9.36854C31.8233 6.48711 29.4875 4.15125 26.6061 4.15125H9.3668Z" fill="white"/>
<rect x="8.30115" y="9.68535" width="19.3717" height="26.2901" rx="2.60864" fill="white"/>
<rect x="21.0691" y="14.2007" width="28.4021" height="41.6564" transform="rotate(15.5651 21.0691 14.2007)" fill="#000E1A"/>
<path fill-rule="evenodd" clip-rule="evenodd" d="M20.4412 12.0592C19.0533 11.6726 17.6148 12.4843 17.2282 13.8722L6.37561 52.8335C5.98902 54.2213 6.80072 55.6598 8.18859 56.0464L37.8192 64.3C39.2071 64.6866 40.6456 63.8749 41.0322 62.487L51.8848 23.5258C52.2714 22.1379 51.4597 20.6994 50.0718 20.3128L20.4412 12.0592ZM25.8387 17.8721C23.0629 17.099 20.186 18.7224 19.4128 21.4981L12.1879 47.4358C11.4147 50.2115 13.0381 53.0885 15.8138 53.8617L32.4209 58.4876C35.1966 59.2607 38.0736 57.6373 38.8468 54.8616L46.0717 28.9239C46.8449 26.1482 45.2215 23.2712 42.4457 22.498L25.8387 17.8721Z" fill="white"/>
<rect x="23.328" y="22.9186" width="19.3717" height="26.2901" rx="2.60864" transform="rotate(15.5651 23.328 22.9186)" fill="white"/>
</svg>
