<svg width="48" height="66" viewBox="0 0 48 66" fill="none" xmlns="http://www.w3.org/2000/svg">
<path d="M30.3433 54.489C30.614 53.8708 30.9423 53.2899 31.3183 52.7494L28.8236 43.8006C28.558 42.8482 27.9111 42.0478 27.0357 41.5884L21.3627 38.6118L25.2293 29.7824L27.4081 33.735C28.165 35.108 29.8197 35.7148 31.283 35.1521C35.096 33.6855 39.1509 32.0468 41.9091 30.885C43.0674 30.3972 44.0626 29.5072 44.1654 28.1834C44.2954 26.512 43.0459 25.0518 41.3744 24.9217L32.1187 28.4618L28.4217 22.4922L28.6516 21.9673C29.464 20.1124 28.6187 17.9503 26.7638 17.1379L19.1351 13.7971C17.2802 12.9848 15.1181 13.83 14.3057 15.6849L14.004 16.3738L17.853 16.1291L5.65215 19.8244C4.69715 20.1137 3.9236 20.8638 3.62546 21.8545L0.12971 33.4671C-0.352911 35.0692 0.552472 36.7644 2.16116 37.2488C3.76451 37.7314 5.46075 36.8173 5.94236 35.2182C5.9425 35.2179 5.94265 35.2176 5.94265 35.2173L8.96948 25.1632L20.0184 21.8167L11.4393 27.068L8.73293 36.0574C8.34796 37.3359 7.57672 38.3843 6.57354 39.1253L12.8391 48.2093L4.38069 58.1702C3.09885 59.6796 3.28347 61.9423 4.79278 63.2242C6.30266 64.506 8.56504 64.3212 9.84674 62.8119L20.0839 50.7564C21.0719 49.5929 21.2084 47.9418 20.4528 46.6388C19.8892 45.8442 20.9492 47.2805 13.6437 37.4491C14.4766 38.1358 21.1753 43.6593 22.1954 44.5003L22.3135 44.5986C24.1784 46.148 24.6063 48.8247 23.3497 50.871L26.8361 63.3765C27.278 64.9619 28.7188 66 30.288 66C30.9191 66 31.5667 65.8317 32.1474 65.4803C31.3161 64.5667 30.6489 63.5009 30.1859 62.3162C29.1915 59.7714 29.2473 56.9918 30.3433 54.489Z" fill="white"/>
<path d="M29.4507 14.641C33.4937 14.641 36.7712 11.3635 36.7712 7.32051C36.7712 3.2775 33.4937 0 29.4507 0C25.4077 0 22.1302 3.2775 22.1302 7.32051C22.1302 11.3635 25.4077 14.641 29.4507 14.641Z" fill="white"/>
<path d="M39.7167 51.2699C36.8976 51.2699 34.2106 52.9078 33.0072 55.6556C30.8853 60.5007 34.4569 65.9145 39.7091 65.9145C42.5282 65.9145 45.2152 64.2765 46.4186 61.5288C48.5405 56.6837 44.9688 51.2699 39.7167 51.2699Z" fill="white"/>
</svg>
