<svg width="54" height="66" viewBox="0 0 54 66" fill="none" xmlns="http://www.w3.org/2000/svg">
<path d="M49.1339 7.39655H45.8017V5.43021V3.49658C45.8017 1.61273 44.4607 0 42.5768 0H11.0951C9.21127 0 7.68103 1.61273 7.68103 3.49658V5.43021V7.39655H4.2735C2.80415 7.39655 0 8.18514 0 11.5955V17.1978C0 23.2681 4.19128 28.3871 9.8468 29.8829C12.2689 34.7513 16.527 38.453 21.642 39.9715C20.8059 40.3482 20.2253 41.178 20.2253 42.145C20.2253 42.6607 20.396 43.2414 20.6776 43.5259H20.5846C19.2993 43.5259 18.2481 44.6638 18.1745 45.8017H15.0602C14.2253 45.8017 13.4404 46.1209 12.8495 46.7149C12.2586 47.3086 11.9358 48.0915 11.94 48.9262L11.9924 59.1724H10.5495C8.70347 59.1724 7.11207 60.6691 7.11207 62.5151V62.6573C7.11207 64.5033 8.70347 66 10.5495 66H42.8383C44.6843 66 46.0862 64.5033 46.0862 62.6573V62.5151C46.0862 60.6691 44.6846 59.1724 42.8383 59.1724H41.6796L41.7316 48.9225C41.7359 48.0875 41.413 47.3086 40.8221 46.7146C40.2316 46.1209 39.4464 45.8017 38.6114 45.8017H35.4978C35.4241 44.6638 34.3729 43.5259 33.0876 43.5259H32.9946C33.2762 43.2414 33.4435 42.661 33.4435 42.145C33.4435 41.1777 32.8597 40.3465 32.0237 39.9698C37.1387 38.4515 41.3083 34.7507 43.7304 29.8821C49.3862 28.3863 53.4828 23.2681 53.4828 17.1978V11.7915C53.4828 8.22639 50.6948 7.39655 49.1339 7.39655ZM5.12069 18.4333V12.5172H7.68103V20.549C7.68103 22.368 7.89013 24.1301 8.32027 25.8077C6.35364 23.9515 5.12069 21.3322 5.12069 18.4333ZM32.6925 25.6279L26.8361 21.3732L20.98 25.6279L23.2169 18.7534L17.3608 14.5086H24.5995L26.8364 7.62442L29.073 14.5086H36.3117L30.4556 18.7534L32.6925 25.6279ZM48.3621 18.4333C48.3621 21.3325 47.1291 23.952 45.1619 25.8083C45.5923 24.1304 45.8017 22.3683 45.8017 20.549V12.5172H48.3621V18.4333Z" fill="white"/>
</svg>
