<svg width="23" height="25" viewBox="0 0 23 25" fill="none" xmlns="http://www.w3.org/2000/svg">
<path fill-rule="evenodd" clip-rule="evenodd" d="M9.08333 0.416504H13.9167C15.2514 0.416504 16.3333 1.49848 16.3333 2.83317C16.3333 4.16786 15.2514 5.24984 13.9167 5.24984H9.08333C7.74865 5.24984 6.66667 4.16786 6.66667 2.83317C6.66667 1.49848 7.74865 0.416504 9.08333 0.416504ZM4.86302 2.86946C4.85715 2.95729 4.85417 3.04592 4.85417 3.13524C4.85417 5.30411 6.61238 7.06232 8.78125 7.06232H14.2188C16.3876 7.06232 18.1458 5.30411 18.1458 3.13524C18.1458 3.04592 18.1429 2.9573 18.137 2.86946C20.5255 3.16283 22.375 5.19867 22.375 7.66649V19.7498C22.375 22.4192 20.211 24.5832 17.5417 24.5832H5.45833C2.78896 24.5832 0.625 22.4192 0.625 19.7498V7.66649C0.625 5.19867 2.47451 3.16283 4.86302 2.86946ZM5.76042 10.0832C5.76042 9.58266 6.16616 9.17692 6.66667 9.17692H16.3333C16.8338 9.17692 17.2396 9.58266 17.2396 10.0832C17.2396 10.5837 16.8338 10.9894 16.3333 10.9894H6.66667C6.16616 10.9894 5.76042 10.5837 5.76042 10.0832ZM6.66667 14.0103C6.16616 14.0103 5.76042 14.416 5.76042 14.9165C5.76042 15.417 6.16616 15.8228 6.66667 15.8228H16.3333C16.8338 15.8228 17.2396 15.417 17.2396 14.9165C17.2396 14.416 16.8338 14.0103 16.3333 14.0103H6.66667ZM5.76042 19.7498C5.76042 19.2493 6.16616 18.8436 6.66667 18.8436H11.5C12.0005 18.8436 12.4062 19.2493 12.4062 19.7498C12.4062 20.2503 12.0005 20.6561 11.5 20.6561H6.66667C6.16616 20.6561 5.76042 20.2503 5.76042 19.7498Z" fill="#F8F8F8"/>
</svg>
