<svg width="26" height="36" viewBox="0 0 26 36" fill="none" xmlns="http://www.w3.org/2000/svg">
<path d="M16.8356 29.6201C16.9802 29.29 17.1555 28.9798 17.3563 28.6912L16.0241 23.9126C15.8823 23.4041 15.5369 22.9767 15.0695 22.7313L12.0401 21.1418L14.1048 16.427L15.2683 18.5377C15.6725 19.2708 16.5561 19.5949 17.3374 19.2944C19.3736 18.5112 21.5388 17.6362 23.0117 17.0158C23.6302 16.7553 24.1616 16.2801 24.2166 15.5732C24.286 14.6806 23.6187 13.9009 22.7262 13.8315L17.7837 15.7218L15.8096 12.5341L15.9323 12.2538C16.3661 11.2633 15.9148 10.1088 14.9243 9.67499L10.8506 7.89101C9.86009 7.45723 8.70553 7.90857 8.27174 8.89907L8.11061 9.26693L10.1659 9.1363L3.65082 11.1095C3.14086 11.264 2.72779 11.6645 2.56859 12.1936L0.701886 18.3946C0.444171 19.2501 0.927637 20.1553 1.78666 20.414C2.64284 20.6717 3.54861 20.1836 3.80579 19.3297C3.80586 19.3295 3.80594 19.3294 3.80594 19.3292L5.42224 13.9604L11.3223 12.1734L6.74109 14.9776L5.29593 19.7778C5.09036 20.4605 4.67852 21.0204 4.14283 21.416L7.48858 26.2668L2.97187 31.5858C2.28738 32.3919 2.38597 33.6001 3.19192 34.2846C3.99819 34.9691 5.20628 34.8704 5.89069 34.0645L11.3572 27.6269C11.8848 27.0057 11.9577 26.124 11.5543 25.4282C11.2533 25.0039 11.8193 25.7709 7.91821 20.521C8.36301 20.8877 11.9401 23.8371 12.4848 24.2863L12.5478 24.3387C13.5437 25.1661 13.7722 26.5954 13.1012 27.6882L14.9629 34.3659C15.1989 35.2126 15.9682 35.7669 16.8061 35.7669C17.1431 35.7669 17.4889 35.677 17.799 35.4894C17.3552 35.0015 16.9989 34.4324 16.7516 33.7998C16.2206 32.4409 16.2504 30.9566 16.8356 29.6201Z" fill="white"/>
<path d="M16.359 8.34186C18.518 8.34186 20.2681 6.5917 20.2681 4.43277C20.2681 2.27384 18.518 0.523682 16.359 0.523682C14.2001 0.523682 12.45 2.27384 12.45 4.43277C12.45 6.5917 14.2001 8.34186 16.359 8.34186Z" fill="white"/>
<path d="M21.841 27.9012C20.3356 27.9012 18.9008 28.7759 18.2582 30.2432C17.1251 32.8304 19.0323 35.7213 21.8369 35.7213C23.3423 35.7213 24.7772 34.8467 25.4198 33.3794C26.5528 30.7922 24.6456 27.9012 21.841 27.9012Z" fill="white"/>
</svg>
