<svg width="15" height="17" viewBox="0 0 15 17" fill="none" xmlns="http://www.w3.org/2000/svg">
<path fill-rule="evenodd" clip-rule="evenodd" d="M5.53814 0.457073C6.56723 -0.152358 7.83513 -0.152358 8.86422 0.457073L12.7393 2.75191C13.7684 3.36134 14.4024 4.48762 14.4024 5.70648V10.2962C14.4024 11.515 13.7684 12.6413 12.7393 13.2507L8.86422 15.5456C7.83513 16.155 6.56723 16.155 5.53814 15.5456L1.66304 13.2507C0.633948 12.6413 0 11.515 0 10.2962V5.70648C0 4.48761 0.633948 3.36134 1.66304 2.75191L5.53814 0.457073Z" fill="#09D2E4"/>
<path d="M6.404 9.41992C6.356 9.06792 6.376 8.75592 6.464 8.48392C6.552 8.21192 6.676 7.96392 6.836 7.73992C7.004 7.51592 7.176 7.30392 7.352 7.10392C7.528 6.90392 7.676 6.70792 7.796 6.51592C7.916 6.32392 7.976 6.11992 7.976 5.90392C7.976 5.61592 7.888 5.38392 7.712 5.20792C7.544 5.03192 7.308 4.94392 7.004 4.94392C6.756 4.94392 6.532 4.99992 6.332 5.11192C6.132 5.22392 5.944 5.37592 5.768 5.56792L5 4.85992C5.264 4.55592 5.58 4.30792 5.948 4.11592C6.316 3.91592 6.724 3.81592 7.172 3.81592C7.796 3.81592 8.308 3.98392 8.708 4.31992C9.116 4.65592 9.32 5.15192 9.32 5.80792C9.32 6.11192 9.256 6.38392 9.128 6.62392C9.008 6.86392 8.856 7.08792 8.672 7.29592C8.496 7.50392 8.32 7.71192 8.144 7.91992C7.968 8.12792 7.828 8.35192 7.724 8.59192C7.62 8.83192 7.584 9.10792 7.616 9.41992H6.404ZM7.016 12.1439C6.768 12.1439 6.556 12.0559 6.38 11.8799C6.212 11.7039 6.128 11.4799 6.128 11.2079C6.128 10.9359 6.212 10.7119 6.38 10.5359C6.556 10.3599 6.768 10.2719 7.016 10.2719C7.272 10.2719 7.484 10.3599 7.652 10.5359C7.828 10.7119 7.916 10.9359 7.916 11.2079C7.916 11.4799 7.828 11.7039 7.652 11.8799C7.484 12.0559 7.272 12.1439 7.016 12.1439Z" fill="#002037"/>
</svg>
