<svg width="35" height="35" viewBox="0 0 35 35" fill="none" xmlns="http://www.w3.org/2000/svg">
<path d="M34.983 14.1991L34.2542 10.5584C34.0109 9.3468 32.8506 8.39767 31.6124 8.39767H30.0366C30.0347 8.39767 30.0331 8.39791 30.0312 8.39802C31.4665 7.65926 32.451 6.16542 32.451 4.4456C32.451 1.99429 30.4533 0 27.9978 0C25.5419 0 23.5437 1.99429 23.5437 4.4456C23.5437 6.16542 24.5283 7.65926 25.964 8.39802C25.9619 8.39802 25.96 8.39767 25.958 8.39767H24.382C23.1442 8.39767 21.9838 9.3468 21.7402 10.559L21.5702 11.4085H13.4296L13.2594 10.5583C13.0159 9.3468 11.8557 8.39767 10.6178 8.39767H9.04179C9.03978 8.39767 9.03801 8.39802 9.03601 8.39802C10.4714 7.65926 11.4561 6.16542 11.4561 4.4456C11.4561 1.99429 9.45826 0 7.00259 0C4.54703 0 2.54912 1.99429 2.54912 4.4456C2.54912 6.16542 3.53363 7.65926 4.96917 8.39802C4.96728 8.39791 4.96551 8.39767 4.96362 8.39767H3.38749C2.14974 8.39767 0.989492 9.3468 0.74593 10.5589L0.0170123 14.1991C-0.0346488 14.4577 0.0326994 14.7257 0.200657 14.9296C0.368733 15.1334 0.619726 15.2516 0.884636 15.2516H5.2651L11.7219 29.2595C11.4886 29.5682 11.3203 29.9242 11.2438 30.3069L10.5147 33.9474C10.4631 34.2059 10.5304 34.4741 10.6984 34.678C10.8664 34.8818 11.1174 35 11.3823 35H23.6178C23.8827 35 24.1337 34.8818 24.3018 34.678C24.4697 34.4742 24.5371 34.2059 24.4854 33.9474L23.7565 30.3073C23.6801 29.9246 23.5116 29.5684 23.2784 29.2598L29.7353 15.2516H34.1155C34.3804 15.2516 34.6314 15.1334 34.7993 14.9296C34.9673 14.7257 35.0346 14.4577 34.983 14.1991ZM27.9978 1.76091C29.4778 1.76091 30.6818 2.96526 30.6818 4.4456C30.6818 5.92547 29.4778 7.12946 27.9978 7.12946C26.5173 7.12946 25.3129 5.92547 25.3129 4.4456C25.3129 2.96526 26.5173 1.76091 27.9978 1.76091ZM27.9978 8.89037C28.4895 8.89037 28.9623 8.80925 29.4051 8.66169L27.9976 10.068L26.5895 8.66134C27.0325 8.80914 27.5056 8.89037 27.9978 8.89037ZM7.00259 1.76091C8.48272 1.76091 9.68684 2.96526 9.68684 4.4456C9.68684 5.92547 8.48272 7.12946 7.00259 7.12946C5.52246 7.12946 4.31833 5.92547 4.31833 4.4456C4.31833 2.96526 5.52246 1.76091 7.00259 1.76091ZM7.00259 8.89037C7.49455 8.89037 7.96764 8.80914 8.41041 8.66146L7.00259 10.0681L5.59512 8.66169C6.03801 8.80925 6.51075 8.89037 7.00259 8.89037ZM2.48082 10.9037C2.55914 10.5138 2.9913 10.1586 3.38749 10.1586H4.59622L6.37593 11.9369C6.54188 12.1027 6.7674 12.196 7.00259 12.196C7.23778 12.196 7.46329 12.1027 7.62936 11.9369L9.40931 10.1586H10.618C11.0141 10.1586 11.4463 10.5137 11.5246 10.9031L12.0427 13.4907H1.96291L2.48082 10.9037ZM12.4606 33.2391L12.979 30.6508C13.0566 30.2617 13.4885 29.9073 13.8852 29.9073H15.0938L16.8734 31.6851C17.0394 31.851 17.2649 31.9442 17.5001 31.9442C17.7352 31.9442 17.9606 31.851 18.1267 31.6853L19.9065 29.9073H21.115C21.5116 29.9073 21.9435 30.2617 22.0214 30.6511L22.5395 33.2391H12.4606ZM17.4999 26.8782C16.0201 26.8782 14.816 25.6739 14.816 24.1936C14.816 22.7135 16.0201 21.5093 17.4999 21.5093C18.98 21.5093 20.1841 22.7135 20.1841 24.1936C20.1841 25.6739 18.98 26.8782 17.4999 26.8782ZM17.4999 28.6391C17.9918 28.6391 18.4649 28.558 18.9076 28.4103L17.4999 29.8163L16.0926 28.4103C16.5354 28.558 17.0081 28.6391 17.4999 28.6391ZM21.8007 28.2428C21.5786 28.1801 21.3481 28.1464 21.1149 28.1464H19.5391C19.5371 28.1464 19.5354 28.1466 19.5334 28.1466C20.9689 27.4079 21.9534 25.9138 21.9534 24.1936C21.9534 21.7424 19.9556 19.7484 17.5001 19.7484C15.0446 19.7484 13.0469 21.7424 13.0469 24.1936C13.0469 25.9138 14.0315 27.4079 15.4669 28.1466C15.465 28.1466 15.4631 28.1464 15.4612 28.1464H13.8852C13.652 28.1464 13.4215 28.1801 13.1996 28.2428L7.21136 15.2516H13.1209C13.3858 15.2516 13.6368 15.1334 13.8049 14.9296C13.9728 14.7258 14.0402 14.4577 13.9885 14.1991L13.7823 13.1694H21.218L21.012 14.1991C20.9602 14.4576 21.0276 14.7256 21.1957 14.9295C21.3637 15.1333 21.6147 15.2515 21.8796 15.2515H27.789L21.8007 28.2428ZM22.9576 13.4907L23.4754 10.9037C23.5537 10.5138 23.9859 10.1586 24.3822 10.1586H25.5909L27.3713 11.937C27.5373 12.1027 27.7628 12.196 27.998 12.196C28.2332 12.196 28.4586 12.1026 28.6247 11.9369L30.4043 10.1586H31.6126C32.0089 10.1586 32.4411 10.5136 32.5194 10.9031L33.0374 13.4907H22.9576Z" fill="white"/>
</svg>
