<svg width="35" height="35" viewBox="0 0 35 35" fill="none" xmlns="http://www.w3.org/2000/svg">
<path d="M17.5192 27.9844C16.5049 27.9844 15.6495 28.5479 15.4444 29.3074H19.594C19.3889 28.5479 18.5335 27.9844 17.5192 27.9844Z" fill="white"/>
<path d="M5.91994 31.0537V33.5527H8.58484C8.41964 32.1849 7.30454 31.1321 5.91994 31.0537Z" fill="white"/>
<path d="M20.6058 31.6553H14.4297V33.5915H20.6058V31.6553Z" fill="white"/>
<path d="M26.4582 33.5524H29.0874V31.0562C27.7196 31.1507 26.622 32.1965 26.4582 33.5524Z" fill="white"/>
<path d="M12.0098 33.5914H13.9502V31.1743H21.0874V33.5914H23.0278V29.8975H12.0098V33.5914Z" fill="white"/>
<path d="M17.5191 18.3218C17.972 18.3218 18.3409 17.9529 18.3409 17.5C18.3409 17.0471 17.972 16.6782 17.5191 16.6782C17.0662 16.6782 16.6973 17.0471 16.6973 17.5C16.6973 17.9529 17.0662 18.3218 17.5191 18.3218Z" fill="white"/>
<path d="M17.5192 7.01538C18.5335 7.01538 19.3889 6.45188 19.594 5.69238H15.4444C15.6495 6.45188 16.5049 7.01538 17.5192 7.01538Z" fill="white"/>
<path d="M20.6058 1.4082H14.4297V3.3444H20.6058V1.4082Z" fill="white"/>
<path d="M26.4582 1.51807C26.622 2.87397 27.7196 3.91977 29.0874 4.01427V1.51807H26.4582Z" fill="white"/>
<path d="M23.0278 1.4082H21.0874V3.8253H13.9502V1.4082H12.0098V5.1021H23.0278V1.4082Z" fill="white"/>
<path d="M8.58484 1.51855H5.91994V4.01756C7.30454 3.93846 8.41964 2.88636 8.58484 1.51855Z" fill="white"/>
<path d="M17.5192 20.0794C18.9416 20.0794 20.0986 18.9223 20.0986 17.4999C20.0986 16.0775 18.9416 14.9204 17.5192 14.9204C16.0968 14.9204 14.9397 16.0775 14.9397 17.4999C14.9397 18.9223 16.0968 20.0794 17.5192 20.0794ZM17.5192 16.1979C18.2374 16.1979 18.8212 16.7824 18.8212 17.4999C18.8212 18.2174 18.2367 18.8019 17.5192 18.8019C16.8017 18.8019 16.2172 18.2174 16.2172 17.4999C16.2172 16.7824 16.8017 16.1979 17.5192 16.1979Z" fill="white"/>
<path d="M25.9669 1.4082H23.5085V5.583H20.1051C19.9602 6.6645 18.85 7.4961 17.5193 7.4961C16.1886 7.4961 15.0784 6.6645 14.9335 5.583H11.53V1.4082H9.07795C8.95755 3.112 7.58415 4.4378 5.87685 4.4994V17.2597H14.4701C14.5933 15.6847 15.9135 14.4401 17.52 14.4401C19.1265 14.4401 20.4467 15.6847 20.5699 17.2597H29.0896V4.4959C27.4194 4.3972 26.0866 3.0854 25.9683 1.4082H25.9669ZM14.146 12.4136L13.8057 12.7538L13.028 11.9761L12.2503 12.7538L11.9101 12.4136L12.6878 11.6359L11.9101 10.8582L12.2503 10.518L13.028 11.2957L13.8057 10.518L14.146 10.8582L13.3682 11.6359L14.146 12.4136ZM23.3153 15.39L22.9611 13.5063L23.6331 13.7422C24.6152 9.81661 22.0847 7.795 22.0581 7.7747L22.3528 7.3953C22.3836 7.4191 23.1074 7.9889 23.6765 9.1117C24.1784 10.1036 24.6446 11.7269 24.0888 13.9025L24.7699 14.1419L23.3153 15.39Z" fill="white"/>
<path d="M17.5193 20.5598C15.9128 20.5598 14.5926 19.3152 14.4694 17.7402H5.87685V30.5712C7.56035 30.6314 8.91905 31.9222 9.07235 33.5917H11.5301V29.4169H14.9335C15.0784 28.3354 16.1886 27.5038 17.5193 27.5038C18.85 27.5038 19.9602 28.3354 20.1051 29.4169H23.5085V33.5917H25.9718C26.1223 31.9488 27.4411 30.6727 29.0882 30.5747V17.7402H20.5685C20.4453 19.3152 19.1251 20.5598 17.5186 20.5598H17.5193ZM12.4884 27.564C12.4576 27.5402 11.7338 26.9704 11.1647 25.8476C10.6627 24.8557 10.1965 23.2324 10.7523 21.0568L10.0712 20.8174L11.5258 19.5693L11.8801 21.453L11.2074 21.2164C10.8028 22.8264 10.9281 24.3027 11.5826 25.6089C12.1006 26.6435 12.7761 27.179 12.7831 27.1839L12.4877 27.5633L12.4884 27.564ZM21.5653 22.8194L21.9055 22.4799L22.6832 23.2576L23.4609 22.4799L23.8011 22.8194L23.0234 23.5971L23.8011 24.3748L23.4609 24.7143L22.6832 23.9366L21.9055 24.7143L21.5653 24.3748L22.343 23.5971L21.5653 22.8194Z" fill="white"/>
</svg>
