<svg width="18" height="18" viewBox="0 0 18 18" fill="none" xmlns="http://www.w3.org/2000/svg">
<path fill-rule="evenodd" clip-rule="evenodd" d="M8.94321 17.7772C13.6364 17.7772 17.441 13.9727 17.441 9.27949C17.441 4.58631 13.6364 0.781738 8.94321 0.781738C4.25004 0.781738 0.445465 4.58631 0.445465 9.27949C0.445465 13.9727 4.25004 17.7772 8.94321 17.7772ZM9.58054 5.03061C9.58054 4.67862 9.2952 4.39328 8.94321 4.39328C8.59123 4.39328 8.30588 4.67862 8.30588 5.03061V9.27949C8.30588 9.55381 8.48142 9.79736 8.74167 9.88411L11.291 10.7339C11.6249 10.8452 11.9859 10.6647 12.0972 10.3308C12.2085 9.99688 12.028 9.63594 11.6941 9.52464L9.58054 8.82012V5.03061Z" fill="#F8F8F8"/>
</svg>
