<svg width="38" height="36" viewBox="0 0 38 36" fill="none" xmlns="http://www.w3.org/2000/svg">
<path d="M9.27135 12.9353C10.7107 12.9353 11.8775 11.7685 11.8775 10.3292C11.8775 8.88983 10.7107 7.72302 9.27135 7.72302C7.83202 7.72302 6.66521 8.88983 6.66521 10.3292C6.66521 11.7685 7.83202 12.9353 9.27135 12.9353Z" fill="white"/>
<path d="M19.4274 30.0515C20.8668 30.0515 22.0336 28.8847 22.0336 27.4454C22.0336 26.006 20.8668 24.8392 19.4274 24.8392C17.9881 24.8392 16.8213 26.006 16.8213 27.4454C16.8213 28.8847 17.9881 30.0515 19.4274 30.0515Z" fill="white"/>
<path d="M12.5124 23.0029V16.2096C12.6965 16.1452 12.1931 16.4536 19.5847 11.6866C20.1089 11.3485 20.2599 10.6495 19.9218 10.1252C19.5836 9.60087 18.8846 9.45021 18.3604 9.78815L11.8069 14.0146C11.0001 14.0146 8.66073 14.0146 7.96698 14.0146L2.64251 7.5349C2.24653 7.05292 1.53468 6.98325 1.0527 7.37931C0.570719 7.77537 0.501126 8.48714 0.897104 8.96912L6.52954 15.8237V23.3239L3.29964 33.9638C3.08221 34.6801 3.4866 35.437 4.2029 35.6545C4.92025 35.8721 5.67639 35.4666 5.89358 34.7512L8.90249 24.8392H10.514L13.0965 27.9363V32.6827C13.0965 33.4312 13.7034 34.0381 14.452 34.0381C15.2006 34.0381 15.8075 33.4313 15.8075 32.6827V27.4453C15.8075 27.1281 15.6962 26.8209 15.493 26.5773L12.5124 23.0029Z" fill="white"/>
<path d="M27.6282 4.86436C28.8418 4.86436 29.8255 3.88058 29.8255 2.66704C29.8255 1.4535 28.8418 0.469727 27.6282 0.469727C26.4147 0.469727 25.4309 1.4535 25.4309 2.66704C25.4309 3.88058 26.4147 4.86436 27.6282 4.86436Z" fill="white"/>
<path d="M37.611 2.16883C37.3359 1.72064 36.7495 1.5804 36.3011 1.8557L29.9195 5.77458C29.5653 5.77458 26.761 5.77458 26.4155 5.77458L19.802 2.94575C19.3184 2.73899 18.7588 2.96329 18.5518 3.44689C18.345 3.9304 18.5693 4.49013 19.0529 4.69697L25.4586 7.43689V13.6235L22.7353 22.5943C22.552 23.1982 22.8929 23.8364 23.4969 24.0198C24.1004 24.2032 24.739 23.8625 24.9224 23.2582L27.4594 14.9011H28.3445L29.1683 23.0413C29.2316 23.6684 29.7911 24.1267 30.4203 24.0633C31.0482 23.9998 31.5057 23.4393 31.4422 22.8113C30.45 13.0067 30.5191 13.6641 30.503 13.579V7.6236C30.657 7.56953 30.1263 7.88282 37.2979 3.47881C37.7461 3.20343 37.8863 2.61702 37.611 2.16883Z" fill="white"/>
</svg>
