<svg width="39" height="36" viewBox="0 0 39 36" fill="none" xmlns="http://www.w3.org/2000/svg">
<path d="M20.2832 5.9352C20.3625 5.96854 20.4457 5.98492 20.5268 5.98492C20.7729 5.98492 21.0058 5.83954 21.1071 5.5991L22.8127 1.54705C22.9474 1.22731 22.797 0.857866 22.4766 0.723186C22.1563 0.588507 21.7869 0.738897 21.6521 1.0593L19.9471 5.11127C19.8125 5.431 19.9629 5.80045 20.2832 5.9352Z" fill="white"/>
<path d="M17.0507 5.4865C17.1615 5.70615 17.3831 5.83264 17.6134 5.83264C17.7085 5.83264 17.8054 5.81125 17.896 5.7653C18.2063 5.60857 18.3308 5.23034 18.1742 4.92005L16.0286 0.666058C15.8719 0.355173 15.4924 0.231115 15.1834 0.387258C14.8731 0.543991 14.7478 0.922879 14.9046 1.23251L17.0507 5.4865Z" fill="white"/>
<path d="M11.5586 4.98084L15.4174 7.75394C15.5282 7.8339 15.6566 7.87225 15.7837 7.87225C15.9795 7.87225 16.1727 7.7816 16.2954 7.61041C16.4987 7.32844 16.4345 6.93443 16.1519 6.73175L12.2931 3.95865C12.0118 3.75663 11.6178 3.8202 11.4151 4.10277C11.2125 4.38481 11.2767 4.77816 11.5586 4.98084Z" fill="white"/>
<path d="M38.7219 7.79636L37.4631 4.02002C37.3548 3.69652 37.0093 3.51899 36.6827 3.61657L20.7415 8.45722C20.576 8.5076 20.4387 8.6234 20.3614 8.77821C20.2839 8.93303 20.2739 9.1124 20.3324 9.27482L21.1179 11.4323C21.2369 11.7596 21.0682 12.1222 20.7428 12.2405C20.4155 12.357 20.0536 12.1895 19.9353 11.8641L19.1234 9.63232C19.0069 9.31258 18.6582 9.14331 18.3348 9.24967L8.8624 12.3671C5.86087 13.4597 3.46474 15.655 2.11469 18.5502C0.764652 21.4453 0.622375 24.6924 1.71501 27.6939C3.48045 32.5446 8.07815 35.5632 12.9647 35.5632C14.3198 35.5632 15.6969 35.3309 17.0425 34.8413C20.0441 33.7493 22.4408 31.5527 23.7902 28.6582C25.1038 25.8404 25.2737 22.6884 24.2742 19.7548C24.2705 19.6969 24.2591 19.639 24.2384 19.5817C23.7865 18.3178 23.1281 17.1459 22.2816 16.098C22.0632 15.8274 21.6667 15.7858 21.3967 16.0036C21.1261 16.222 21.0839 16.6185 21.3023 16.8885C22.0097 17.7646 22.5705 18.737 22.9708 19.7824C22.9752 19.8371 22.9872 19.8913 23.0066 19.9448C23.9841 22.6305 23.8576 25.5357 22.6498 28.1256C21.442 30.7162 19.2971 32.6811 16.6121 33.6586C11.0665 35.6771 4.91553 32.807 2.8977 27.2634C1.92027 24.5778 2.04735 21.6725 3.25519 19.0826C4.46296 16.4921 6.60736 14.5271 9.2747 13.5565L18.1484 10.6356L18.752 12.2946C19.1088 13.2715 20.1945 13.7788 21.1726 13.4238C22.1507 13.0675 22.6567 11.9818 22.3011 11.0025L21.7428 9.46865L36.4624 4.99936L37.3612 7.69502L26.5394 13.6037C25.1604 14.2929 24.3039 15.7147 24.3039 17.3133C24.3039 17.6607 24.5852 17.9427 24.9332 17.9427C25.2806 17.9427 25.5626 17.6607 25.5626 17.3133C25.5626 16.1943 26.1524 15.2049 27.1229 14.719L38.4261 8.54787C38.6936 8.40183 38.8182 8.0852 38.7219 7.79636Z" fill="white"/>
<path d="M12.9748 16.8066C9.15691 16.8066 6.05145 19.9127 6.05145 23.73C6.05145 27.5472 9.15691 30.6533 12.9748 30.6533C16.7921 30.6533 19.8981 27.5472 19.8981 23.73C19.8981 19.9127 16.7921 16.8066 12.9748 16.8066ZM12.9748 29.3945C9.8511 29.3945 7.31026 26.853 7.31026 23.73C7.31026 20.607 9.8511 18.0654 12.9748 18.0654C16.0978 18.0654 18.6393 20.607 18.6393 23.73C18.6393 26.853 16.0978 29.3945 12.9748 29.3945Z" fill="white"/>
</svg>
