<svg width="38" height="33" viewBox="0 0 38 33" fill="none" xmlns="http://www.w3.org/2000/svg">
<path d="M36.4195 12.6859L24.8538 11.0671C24.6935 11.0446 24.555 10.9476 24.4833 10.8079L19.3114 0.710043C19.1309 0.35772 18.6098 0.35772 18.4294 0.710043L13.2575 10.8071C13.1858 10.9468 13.0472 11.0438 12.887 11.0663L1.32204 12.6859C0.918499 12.7426 0.757406 13.2199 1.04979 13.4938L9.41861 21.3536C9.5346 21.4622 9.58776 21.619 9.56037 21.7726L7.58456 32.8708C7.51609 33.2581 7.93735 33.553 8.2982 33.3698L18.6428 28.13C18.7862 28.0578 18.957 28.0578 19.1003 28.13L29.445 33.3698C29.8058 33.5522 30.2271 33.2573 30.1586 32.8708L28.1828 21.7726C28.1554 21.619 28.2086 21.4622 28.3246 21.3536L36.6934 13.4938C36.985 13.2199 36.8239 12.7426 36.4211 12.6859H36.4195ZM33.1179 14.6129L26.5356 20.794C26.4196 20.9027 26.3665 21.0594 26.3939 21.2131L26.8763 27.3733C26.94 27.7319 26.5783 28.0229 26.2239 27.8987L22.9746 26.1681C22.7266 26.0362 22.5349 25.8259 22.4302 25.5721C21.727 23.8734 19.3114 18.7267 19.3114 18.7267C19.1309 18.3743 18.6098 18.3743 18.4294 18.7267L15.5901 24.779C15.4757 25.0747 15.272 25.3308 15.0053 25.5132L11.5169 27.8987C11.1624 28.0229 10.8008 27.7319 10.8644 27.3733L11.3469 21.2131C11.3743 21.0594 11.3211 20.9027 11.2051 20.794L4.62366 14.6121C4.33208 14.3381 4.49317 13.8609 4.8959 13.8042L13.9921 12.5307C14.1523 12.5082 14.2909 12.4112 14.3626 12.2715L18.4302 4.33028C18.6106 3.97796 19.1318 3.97796 19.3122 4.33028L23.3798 12.2715C23.4515 12.4112 23.59 12.5082 23.7503 12.5307L32.8465 13.8042C33.25 13.8609 33.4111 14.3381 33.1187 14.6121L33.1179 14.6129Z" fill="white" stroke="white" stroke-width="0.5" stroke-miterlimit="10"/>
</svg>
