<svg width="29" height="35" viewBox="0 0 29 35" fill="none" xmlns="http://www.w3.org/2000/svg">
<path d="M26.6419 3.92241H24.8351V2.87966V1.85425C24.8351 0.855237 24.1079 0 23.0865 0H6.01611C4.99463 0 4.16489 0.855237 4.16489 1.85425V2.87966V3.92241H2.31722C1.52049 3.92241 0 4.3406 0 6.14914V9.12006C0 12.3392 2.27264 15.0538 5.33924 15.847C6.65257 18.4287 8.96146 20.3917 11.735 21.197C11.2816 21.3968 10.9668 21.8368 10.9668 22.3496C10.9668 22.6231 11.0593 22.931 11.212 23.0819H11.1616C10.4647 23.0819 9.89471 23.6853 9.85476 24.2888H8.16612C7.71338 24.2888 7.28779 24.4581 6.9674 24.7731C6.64702 25.0879 6.47194 25.5031 6.47425 25.9457L6.50263 31.3793H5.72025C4.71929 31.3793 3.85638 32.173 3.85638 33.1519V33.2274C3.85638 34.2063 4.71929 35 5.72025 35H23.2282C24.2292 35 24.9894 34.2063 24.9894 33.2274V33.1519C24.9894 32.173 24.2293 31.3793 23.2282 31.3793H22.5999L22.6282 25.9438C22.6305 25.501 22.4554 25.0879 22.135 24.7729C21.8148 24.4581 21.389 24.2888 20.9363 24.2888H19.248C19.208 23.6853 18.6381 23.0819 17.9411 23.0819H17.8907C18.0434 22.931 18.1341 22.6233 18.1341 22.3496C18.1341 21.8367 17.8176 21.3959 17.3642 21.1961C20.1377 20.391 22.3986 18.4284 23.712 15.8466C26.7787 15.0533 29 12.3392 29 9.12006V6.25308C29 4.36248 27.4883 3.92241 26.6419 3.92241ZM2.7766 9.77526V6.63793H4.16489V10.8972C4.16489 11.8618 4.27827 12.7963 4.51151 13.6859C3.44514 12.7015 2.7766 11.3125 2.7766 9.77526ZM17.7269 13.5906L14.5514 11.3343L11.376 13.5906L12.5889 9.94498L9.41358 7.69397H13.3386L14.5515 4.04325L15.7643 7.69397H19.6893L16.514 9.94498L17.7269 13.5906ZM26.2234 9.77526C26.2234 11.3127 25.5549 12.7018 24.4882 13.6862C24.7216 12.7964 24.8351 11.862 24.8351 10.8972V6.63793H26.2234V9.77526Z" fill="white"/>
</svg>
