<svg width="21" height="37" viewBox="0 0 21 37" fill="none" xmlns="http://www.w3.org/2000/svg">
<path d="M8.53988 15.6572C8.82059 15.6387 9.104 15.5942 9.38194 15.4921C10.9374 14.9199 11.7378 13.1954 11.1658 11.6375C10.5935 10.0818 8.86895 9.28409 7.31099 9.85625C6.50242 10.1533 5.90466 10.7657 5.59166 11.5003L6.15714 13.6345L8.53988 15.6572Z" fill="white"/>
<path d="M20.3999 32.8483C19.8331 31.9953 17.3616 28.2882 16.8124 27.4233C16.8124 27.4233 13.9354 20.259 13.6332 19.4342L15.6921 19.1267C16.181 19.0542 16.615 18.7747 16.8822 18.3598L19.9527 13.6064C20.4684 12.8085 20.2386 11.7434 19.4422 11.2289C18.6444 10.7145 17.5806 10.9429 17.065 11.7394L14.4162 15.84L8.67955 17.1281L5.24373 14.2107L3.54723 7.80794C3.30428 6.89056 2.36265 6.34798 1.4452 6.58702C0.527963 6.8301 -0.0186667 7.77038 0.22428 8.68904L2.05769 15.613C2.14787 15.9514 2.33826 16.2563 2.60716 16.4833L7.34299 20.5047C8.4834 23.6059 8.00782 22.3153 10.0817 27.9606L8.39485 30.78L5.66946 28.5019C4.7951 27.7714 3.4936 27.8907 2.76284 28.7625C2.0323 29.6368 2.14908 30.9383 3.02357 31.6688L7.60236 35.4957C8.07915 35.8932 8.69832 36.0452 9.27048 35.9457C9.86541 35.8448 10.3866 35.4888 10.6955 34.9704L13.934 29.5562L15.9781 28.8175L12.4632 34.6964L18.2267 36.0018C19.0298 36.1873 19.8934 35.8663 20.381 35.1612C20.8593 34.4667 20.8673 33.5507 20.3999 32.8483Z" fill="white"/>
<path d="M11.1739 6.63138C12.7292 6.05908 13.5298 4.33455 12.9574 2.77659C12.3853 1.22119 10.6607 0.423367 9.10261 0.995529C7.54757 1.56769 6.7496 3.29236 7.32169 4.84768C7.89115 6.40579 9.6183 7.20361 11.1739 6.63138Z" fill="white"/>
</svg>
