<svg width="22" height="21" viewBox="0 0 22 21" fill="none" xmlns="http://www.w3.org/2000/svg">
<path d="M11.0109 2.19542C13.767 2.19542 14.0934 2.2073 15.1773 2.25482C16.1846 2.29839 16.7286 2.46473 17.0912 2.60335C17.5707 2.78553 17.9172 3.00732 18.2759 3.3598C18.6385 3.71625 18.8601 4.05289 19.0455 4.52419C19.1865 4.88063 19.3557 5.41926 19.4001 6.40542C19.4484 7.47476 19.4605 7.79556 19.4605 10.5006C19.4605 13.2096 19.4484 13.5304 19.4001 14.5957C19.3557 15.5858 19.1865 16.1205 19.0455 16.477C18.8601 16.9483 18.6345 17.2889 18.2759 17.6413C17.9132 17.9978 17.5707 18.2156 17.0912 18.3978C16.7286 18.5364 16.1806 18.7028 15.1773 18.7463C14.0893 18.7938 13.763 18.8057 11.0109 18.8057C8.25479 18.8057 7.92841 18.7938 6.84451 18.7463C5.83717 18.7028 5.2932 18.5364 4.93055 18.3978C4.45106 18.2156 4.10453 17.9938 3.74592 17.6413C3.38327 17.2849 3.16166 16.9483 2.97631 16.477C2.83528 16.1205 2.66604 15.5819 2.62172 14.5957C2.57337 13.5264 2.56128 13.2056 2.56128 10.5006C2.56128 7.7916 2.57337 7.4708 2.62172 6.40542C2.66604 5.4153 2.83528 4.88063 2.97631 4.52419C3.16166 4.05289 3.3873 3.71229 3.74592 3.3598C4.10856 3.00336 4.45106 2.78553 4.93055 2.60335C5.2932 2.46473 5.84119 2.29839 6.84451 2.25482C7.92841 2.2073 8.25479 2.19542 11.0109 2.19542ZM11.0109 0.369629C8.21047 0.369629 7.85991 0.38151 6.75989 0.429036C5.6639 0.476562 4.91041 0.650824 4.25765 0.900335C3.57668 1.16173 3.00048 1.50629 2.42831 2.07264C1.85211 2.63503 1.50155 3.20138 1.23562 3.86675C0.981765 4.51231 0.804472 5.24896 0.756119 6.32621C0.707767 7.41139 0.695679 7.75595 0.695679 10.5085C0.695679 13.261 0.707767 13.6056 0.756119 14.6868C0.804472 15.7641 0.981765 16.5047 1.23562 17.1463C1.50155 17.8156 1.85211 18.382 2.42831 18.9443C3.00048 19.5067 3.57668 19.8553 4.25362 20.1127C4.91041 20.3622 5.65987 20.5365 6.75586 20.584C7.85588 20.6315 8.20644 20.6434 11.0069 20.6434C13.8073 20.6434 14.1578 20.6315 15.2579 20.584C16.3538 20.5365 17.1073 20.3622 17.7601 20.1127C18.437 19.8553 19.0132 19.5067 19.5854 18.9443C20.1576 18.382 20.5122 17.8156 20.7741 17.1502C21.0279 16.5047 21.2052 15.768 21.2536 14.6908C21.3019 13.6096 21.314 13.265 21.314 10.5125C21.314 7.75991 21.3019 7.41535 21.2536 6.33413C21.2052 5.25688 21.0279 4.51627 20.7741 3.87467C20.5202 3.20138 20.1697 2.63503 19.5935 2.07264C19.0213 1.51025 18.4451 1.16173 17.7682 0.904296C17.1114 0.654785 16.3619 0.480523 15.2659 0.432997C14.1619 0.38151 13.8113 0.369629 11.0109 0.369629Z" fill="#C0D9F8"/>
<path d="M11.0109 5.30054C8.08554 5.30054 5.71223 7.63321 5.71223 10.5085C5.71223 13.3837 8.08554 15.7164 11.0109 15.7164C13.9362 15.7164 16.3095 13.3837 16.3095 10.5085C16.3095 7.63321 13.9362 5.30054 11.0109 5.30054ZM11.0109 13.8867C9.11303 13.8867 7.57381 12.3738 7.57381 10.5085C7.57381 8.64311 9.11303 7.13024 11.0109 7.13024C12.9087 7.13024 14.4479 8.64311 14.4479 10.5085C14.4479 12.3738 12.9087 13.8867 11.0109 13.8867Z" fill="#C0D9F8"/>
<path d="M17.756 5.09444C17.756 5.76787 17.2 6.31058 16.519 6.31058C15.834 6.31058 15.282 5.76391 15.282 5.09444C15.282 4.421 15.8381 3.8783 16.519 3.8783C17.2 3.8783 17.756 4.42497 17.756 5.09444Z" fill="#C0D9F8"/>
</svg>
