<svg width="21" height="21" viewBox="0 0 21 21" fill="none" xmlns="http://www.w3.org/2000/svg">
<path d="M20 10.5C20 15.7467 15.7467 20 10.5 20C5.25329 20 1 15.7467 1 10.5C1 5.25329 5.25329 1 10.5 1C15.7467 1 20 5.25329 20 10.5Z" stroke="#C0D9F8" stroke-width="2"/>
<path fill-rule="evenodd" clip-rule="evenodd" d="M4.75289 10.3892C7.81385 9.05559 9.85498 8.17639 10.8763 7.75161C13.7922 6.53876 14.3981 6.32808 14.7931 6.32112C14.8799 6.31959 15.0741 6.34112 15.1999 6.4432C15.3062 6.52939 15.3354 6.64583 15.3494 6.72755C15.3634 6.80927 15.3808 6.99543 15.3669 7.1409C15.2089 8.80119 14.5252 12.8303 14.1773 14.6899C14.0301 15.4767 13.7403 15.7405 13.4597 15.7663C12.85 15.8225 12.387 15.3634 11.7964 14.9763C10.8723 14.3705 10.3502 13.9934 9.45315 13.4022C8.41647 12.7191 9.0885 12.3436 9.6793 11.73C9.83392 11.5694 12.5205 9.12573 12.5725 8.90405C12.579 8.87632 12.5851 8.77298 12.5237 8.71841C12.4623 8.66384 12.3716 8.6825 12.3063 8.69734C12.2136 8.71838 10.7372 9.69417 7.8773 11.6247C7.45825 11.9125 7.07869 12.0527 6.73861 12.0453C6.36371 12.0372 5.64254 11.8333 5.10643 11.6591C4.44887 11.4453 3.92625 11.3323 3.97176 10.9693C3.99546 10.7802 4.25584 10.5869 4.75289 10.3892Z" fill="#C0D9F8"/>
</svg>
