<svg width="22" height="21" viewBox="0 0 22 21" fill="none" xmlns="http://www.w3.org/2000/svg">
<path fill-rule="evenodd" clip-rule="evenodd" d="M8.38248 9.27064C10.9424 9.27064 13.0176 7.27294 13.0176 4.80866C13.0176 2.34438 10.9424 0.34668 8.38248 0.34668C5.82257 0.34668 3.74735 2.34438 3.74735 4.80866C3.74735 7.27294 5.82257 9.27064 8.38248 9.27064ZM8.38248 20.4256C12.8623 20.4256 16.494 18.4279 16.494 15.9636C16.494 13.4993 12.8623 11.5016 8.38248 11.5016C3.90263 11.5016 0.270996 13.4993 0.270996 15.9636C0.270996 18.4279 3.90263 20.4256 8.38248 20.4256ZM12.9729 9.06479C14.0769 7.96163 14.7558 6.46151 14.7558 4.80875C14.7558 4.02278 14.6023 3.27132 14.3225 2.58067C16.1746 2.65441 17.6527 4.12317 17.6527 5.92425C17.6527 7.77246 16.0963 9.27073 14.1763 9.27073C13.7533 9.27073 13.3479 9.19799 12.9729 9.06479ZM18.232 15.9635C18.232 16.5646 18.0933 17.1454 17.8346 17.6944C19.812 17.1043 21.129 16.0502 21.129 14.848C21.129 13.1679 18.5565 11.7769 15.2039 11.5379C17.0703 12.6543 18.232 14.2244 18.232 15.9635Z" fill="#F8F8F8"/>
</svg>
